HIERARCHY
ROOT Hips
{
	OFFSET -3.958830 18.904000 13.208200
	CHANNELS 6 Xposition Yposition Zposition Zrotation Yrotation Xrotation 
	JOINT LHipJoint
	{
		OFFSET 0.000000 0.000000 0.000000
		CHANNELS 3 Zrotation Yrotation Xrotation
		JOINT LeftUpLeg
		{
			OFFSET 1.800000 -1.400000 0.085000
			CHANNELS 3 Zrotation Yrotation Xrotation
			JOINT LeftLeg
			{
				OFFSET 2.215000 -6.000000 0.000000
				CHANNELS 3 Zrotation Yrotation Xrotation
				JOINT LeftFoot
				{
					OFFSET 2.500000 -6.900000 0.000000
					CHANNELS 3 Zrotation Yrotation Xrotation
					JOINT LeftToeBase
					{
						OFFSET 0.200000 -0.500000 1.950000
						CHANNELS 3 Zrotation Yrotation Xrotation
						End Site
						{
							OFFSET 0.000000 0.000000 0.000000
						}
					}
				}
			}
		}
	}
	JOINT RHipJoint
	{
		OFFSET 0.000000 0.000000 0.000000
		CHANNELS 3 Zrotation Yrotation Xrotation
		JOINT RightUpLeg
		{
			OFFSET -1.800000 -1.400000 0.085000
			CHANNELS 3 Zrotation Yrotation Xrotation
			JOINT RightLeg
			{
				OFFSET -2.215000 -6.000000 0.000000
				CHANNELS 3 Zrotation Yrotation Xrotation
				JOINT RightFoot
				{
					OFFSET -2.500000 -6.900000 0.000000
					CHANNELS 3 Zrotation Yrotation Xrotation
					JOINT RightToeBase
					{
						OFFSET -0.200000 -0.500000 1.950000
						CHANNELS 3 Zrotation Yrotation Xrotation
						End Site
						{
							OFFSET 0.000000 0.000000 0.000000
						}
					}
				}
			}
		}
	}
	JOINT LowerBack
	{
		OFFSET 0.000000 0.000000 0.000000
		CHANNELS 3 Zrotation Yrotation Xrotation
		JOINT Spine
		{
			OFFSET -0.087000 1.940000 -0.288900
			CHANNELS 3 Zrotation Yrotation Xrotation
			JOINT Spine1
			{
				OFFSET 0.000000 1.950000 0.060000
				CHANNELS 3 Zrotation Yrotation Xrotation
				JOINT Neck
				{
					OFFSET 0.000000 0.000000 0.000000
					CHANNELS 3 Zrotation Yrotation Xrotation
					JOINT Neck1
					{
						OFFSET 0.000000 1.600000 0.340000
						CHANNELS 3 Zrotation Yrotation Xrotation
						JOINT Head
						{
							OFFSET 0.000000 1.667000 -0.240000
							CHANNELS 3 Zrotation Yrotation Xrotation
							End Site
							{
								OFFSET 0.000000 0.000000 0.000000
							}
						}
					}
				}
				JOINT LeftShoulder
				{
					OFFSET 0.000000 0.000000 0.000000
					CHANNELS 3 Zrotation Yrotation Xrotation
					JOINT LeftArm
					{
						OFFSET 2.700000 1.550000 -0.730000
						CHANNELS 3 Zrotation Yrotation Xrotation
						JOINT LeftForeArm
						{
							OFFSET 5.450000 0.000000 0.000000
							CHANNELS 3 Zrotation Yrotation Xrotation
							JOINT LeftHand
							{
								OFFSET 3.450000 0.000000 0.000000
								CHANNELS 3 Zrotation Yrotation Xrotation
								JOINT LeftHandIndex1
								{
									OFFSET 0.750000 0.000000 0.000000
									CHANNELS 3 Zrotation Yrotation Xrotation
									End Site
									{
										OFFSET 0.000000 0.000000 0.000000
									}
								}
							}
						}
					}
				}
				JOINT RightShoulder
				{
					OFFSET 0.000000 0.000000 0.000000
					CHANNELS 3 Zrotation Yrotation Xrotation
					JOINT RightArm
					{
						OFFSET -2.700000 1.550000 -0.730000
						CHANNELS 3 Zrotation Yrotation Xrotation
						JOINT RightForeArm
						{
							OFFSET -5.450000 0.000000 0.000000
							CHANNELS 3 Zrotation Yrotation Xrotation
							JOINT RightHand
							{
								OFFSET -3.450000 0.000000 0.000000
								CHANNELS 3 Zrotation Yrotation Xrotation
								JOINT RightHandIndex1
								{
									OFFSET -0.750000 0.000000 0.000000
									CHANNELS 3 Zrotation Yrotation Xrotation
									End Site
									{
										OFFSET 0.000000 0.000000 0.000000
									}
								}
							}
						}
					}
				}
			}
		}
	}
}
MOTION
Frames: 4
Frame Time: 0.016667
1.625300 17.248390 -1.097090 157.078850 29.079582 177.545317 -15.635784 11.883127 5.778097 15.105591 -12.647105 -43.311628 -1.114065 14.086728 66.031453 1.271663 11.721816 0.330311 0.347660 0.286030 0.281750 18.151298 -9.448804 2.514334 2.869821 3.811790 -32.820793 -26.194771 3.848625 33.582070 -0.640899 -4.497356 2.638801 0.074900 -0.259720 0.058920 -2.706769 -2.846853 -9.027255 2.630614 6.405873 43.039602 1.159421 12.061887 -7.828077 0.091410 -10.114526 -8.787471 -26.101581 10.320367 45.393720 -2.349940 1.595360 -15.300180 -30.343204 -0.229526 -1.381938 -33.121202 16.261726 -12.916605 -24.003288 -24.006718 1.639878 -3.294688 3.020383 0.480800 -0.302880 0.316800 0.013420 30.013038 14.733713 7.470856 43.123919 -0.553047 -10.707803 3.703443 25.043608 -0.198070 2.407896 -1.221305 0.049520 0.097130 -0.070150 -0.101650 
1.622870 17.356920 -1.030420 157.555915 27.068245 176.257369 -15.692220 11.605676 6.529545 10.696799 -13.356588 -52.867682 6.510362 9.990983 70.115953 1.291474 11.579134 0.375543 0.421340 0.392250 0.306060 18.164330 -9.422288 2.063970 -2.106675 3.786440 -29.969347 -17.703183 1.222708 34.121601 -0.491131 -3.809981 2.861827 0.115140 -0.305860 0.061760 -2.704323 -2.902876 -9.126229 2.943225 3.874983 47.453804 1.133155 9.055590 -6.917910 0.148699 -9.611583 -9.118113 -24.728768 8.212381 45.265465 0.193010 -0.648760 -18.606820 -30.507065 -3.558468 0.332961 -33.661204 13.730827 -13.067981 -27.358885 -32.048511 4.073061 -3.183442 3.164570 0.491390 -0.355450 0.367370 0.038400 30.295001 16.681640 6.949355 40.214263 0.256106 -11.844428 5.672044 28.120289 0.229912 2.378541 -1.262441 0.096840 0.093260 -0.119430 -0.076640 
1.639110 17.433420 -0.994590 157.635029 30.860118 174.785787 -15.846089 11.083908 7.305872 11.814547 -14.668333 -60.577878 6.805319 11.191691 75.412273 1.568820 12.505116 0.125342 0.484890 0.502670 0.316870 18.143634 -9.226527 1.680759 -3.368030 3.202112 -27.988497 -14.514413 0.123810 31.711265 -0.428353 -3.292151 3.043911 0.151330 -0.331210 0.059950 -2.536307 -2.862716 -9.352798 0.709498 5.118523 50.820769 2.117494 9.439722 -5.935400 0.048817 -8.334524 -9.214474 -21.283278 5.454357 45.508834 4.183320 -2.433870 -21.510960 -29.958204 -5.885937 1.148671 -34.992632 11.678709 -13.859629 -30.969281 -37.887083 6.388734 -3.109460 3.248762 0.489070 -0.397590 0.418130 0.076350 30.137489 18.630885 7.083965 38.010059 1.937221 -11.608339 6.244324 28.547186 0.456408 2.375314 -1.288230 0.143750 0.095940 -0.176440 -0.039050 
1.645460 17.503960 -0.977920 158.240371 35.482705 173.614603 -16.020542 10.458047 8.051963 15.379253 -15.370252 -68.382858 4.430351 14.852480 80.997643 1.878818 13.835212 -0.229646 0.532070 0.571700 0.361510 18.125940 -8.959236 1.394305 -3.927659 2.974780 -26.780873 -11.760854 -0.799694 30.856123 -0.415714 -3.067416 3.110854 0.183940 -0.361800 0.059890 -2.361127 -2.715491 -9.637907 -0.932527 6.882769 53.460042 2.700755 10.575224 -5.029389 0.313205 -5.400506 -8.889580 -14.681531 1.041005 46.468417 7.098680 -3.881860 -24.222190 -30.003813 -8.085008 1.540317 -35.898167 9.256809 -14.245312 -34.566883 -41.901911 8.630608 -3.077064 3.279558 0.509540 -0.424100 0.462940 0.083170 29.664896 19.641198 6.879671 36.723786 3.962289 -11.228560 6.199644 28.602774 0.553002 2.360358 -1.283168 0.158360 0.103960 -0.214960 -0.041180 
